<?xml version="1.0" encoding="utf-8"?>
<!-- Generator: Adobe Illustrator 25.2.1, SVG Export Plug-In . SVG Version: 6.00 Build 0)  -->
<svg version="1.1" id="Layer_1" xmlns="http://www.w3.org/2000/svg" xmlns:xlink="http://www.w3.org/1999/xlink" x="0px" y="0px"
	 viewBox="0 0 19 20.6" style="enable-background:new 0 0 19 20.6;" xml:space="preserve">
<style type="text/css">
	.st0{fill:#FCFCFC;fill-opacity:0;}
	.st1{fill:none;}
	.st2{fill:#FFDB00;}
</style>
<rect id="Area" x="-18.08" y="14.68" class="st0" width="20" height="20"/>
<g id="Union_1" transform="translate(3599 3059)">
	<path class="st1" d="M-3590.02-3046h-4.98c-2.21,0-4-1.79-4-4v-5c0-2.21,1.79-4,4-4h11c2.21,0,4,1.79,4,4v5c0,2.21-1.79,4-4,4
		h-0.87l-5.78,7.6L-3590.02-3046z"/>
	<path class="st2" d="M-3590.65-3038.4l0.63-7.6h-4.98c-2.21,0-4-1.79-4-4v-5c0-2.21,1.79-4,4-4h11c2.21,0,4,1.79,4,4v5
		c0,2.21-1.79,4-4,4h-0.87L-3590.65-3038.4z"/>
</g>
</svg>
