<svg version="1.1" id="Layer_1" xmlns="http://www.w3.org/2000/svg"
	 viewBox="0 0 48 48">
<style type="text/css">
	.st0{fill:none;stroke:#5B029F;stroke-width:2;}
	.st1{fill:#FFFFFF;}
	.st2{fill:#5B029F;}
</style>
<path class="st0" d="M24,1L24,1c12.7,0,23,10.3,23,23l0,0c0,12.7-10.3,23-23,23l0,0C11.3,47,1,36.7,1,24l0,0C1,11.3,11.3,1,24,1z"/>
<g id="Path">
	<path class="st1" d="M22.3,33.4c-0.6,0-1-0.4-1-1v-5.7h-1.5c-0.6,0-1-0.4-1-1v-3.3c0-0.6,0.4-1,1-1h1.5v-1.5c0-2.9,2.3-5.2,5.2-5.2
		H29c0.6,0,1,0.4,1,1v3.4c0,0.6-0.4,1-1,1h-2.4v1.3h2.3c0.3,0,0.6,0.1,0.8,0.4s0.3,0.6,0.2,0.9l-0.8,3.3c-0.1,0.4-0.5,0.8-1,0.8
		h-1.5v5.7c0,0.6-0.4,1-1,1H22.3z"/>
	<path class="st2" d="M29,15.7v3.4h-2.6c-0.4,0-0.8,0.3-0.8,0.8v2.5h3.3l-0.8,3.3h-2.5v6.7h-3.3v-6.7h-2.5v-3.3h2.5v-2.5
		c0-2.3,1.9-4.2,4.2-4.2H29 M29,13.7h-2.5c-3.4,0-6.2,2.8-6.2,6.2v0.5h-0.5c-1.1,0-2,0.9-2,2v3.3c0,1.1,0.9,2,2,2h0.5v4.7
		c0,1.1,0.9,2,2,2h3.3c1.1,0,2-0.9,2-2v-4.7h0.5c0.9,0,1.7-0.6,1.9-1.5l0.8-3.3c0.1-0.6,0-1.2-0.4-1.7c-0.1-0.1-0.2-0.3-0.4-0.4
		c0.6-0.4,0.9-1,0.9-1.7v-3.4C31,14.6,30.1,13.7,29,13.7L29,13.7z"/>
</g>
</svg>
