<?xml version="1.0" encoding="utf-8"?>
<!-- Generator: Adobe Illustrator 25.2.3, SVG Export Plug-In . SVG Version: 6.00 Build 0)  -->
<svg version="1.1" id="Layer_1" xmlns="http://www.w3.org/2000/svg" xmlns:xlink="http://www.w3.org/1999/xlink" x="0px" y="0px"
	 viewBox="0 0 48 48" style="enable-background:new 0 0 48 48;" xml:space="preserve">
<style type="text/css">
	.st0{fill:none;stroke:#5B029F;stroke-width:2;}
	.st1{fill:#FFFFFF;}
	.st2{fill:#5B029F;}
	.st3{fill:#FFFFFF;stroke:#5B029F;stroke-width:2;stroke-linecap:round;stroke-linejoin:round;}
	.st4{fill:none;stroke:#5B029F;stroke-width:2;stroke-linecap:round;stroke-linejoin:round;}
</style>
<path class="st0" d="M24,1L24,1c12.7,0,23,10.3,23,23l0,0c0,12.7-10.3,23-23,23l0,0C11.3,47,1,36.7,1,24l0,0C1,11.3,11.3,1,24,1z"/>
<g id="Rect">
	<path class="st1" d="M20.7,33.4c-3.4,0-6-2.6-6-6v-6.7c0-3.4,2.6-6,6-6h6.7c3.4,0,6,2.6,6,6v6.7c0,3.4-2.6,6-6,6H20.7z"/>
	<path class="st2" d="M27.4,15.7c2.8,0,5,2.2,5,5v6.7c0,2.8-2.2,5-5,5h-6.7c-2.8,0-5-2.2-5-5v-6.7c0-2.8,2.2-5,5-5H27.4 M27.4,13.7
		h-6.7c-3.9,0-7,3.1-7,7v6.7c0,3.9,3.1,7,7,7h6.7c3.9,0,7-3.1,7-7v-6.7C34.4,16.8,31.3,13.7,27.4,13.7L27.4,13.7z"/>
</g>
<path id="Path" class="st3" d="M27.3,23.5c0.3,1.8-1,3.5-2.8,3.8s-3.5-1-3.8-2.8s1-3.5,2.8-3.8c0.3,0,0.6,0,1,0
	C26,20.9,27.1,22,27.3,23.5z"/>
<line id="Line" class="st4" x1="28.6" y1="19.4" x2="28.6" y2="19.4"/>
</svg>
