<?xml version="1.0" encoding="utf-8"?>
<!-- Generator: Adobe Illustrator 25.2.3, SVG Export Plug-In . SVG Version: 6.00 Build 0)  -->
<svg version="1.1" id="Layer_1" xmlns="http://www.w3.org/2000/svg" xmlns:xlink="http://www.w3.org/1999/xlink" x="0px" y="0px"
	 viewBox="0 0 32 29.6" style="enable-background:new 0 0 32 29.6;" xml:space="preserve">
<style type="text/css">
	.st0{fill:none;stroke:#FFFFFF;stroke-width:2;stroke-linecap:round;stroke-linejoin:round;}
	.st1{fill:#FFDB00;}
	.st2{font-family:'Lato-Black';}
	.st3{font-size:8px;}
</style>
<g id="Icon_">
	<g id="Icon">
		<circle id="Path" class="st0" cx="9" cy="26.6" r="1"/>
		<circle id="Path-2" class="st0" cx="20" cy="26.6" r="1"/>
		<path id="Path-3" class="st0" d="M1,6.6h4L7.7,20c0.2,1,1,1.6,2,1.6h9.7c1,0,1.8-0.7,2-1.6l1.6-8.4H6"/>
	</g>
</g>
<g id="Badge">
	<path id="Area" class="st1" d="M24,0L24,0c4.4,0,8,3.6,8,8l0,0c0,4.4-3.6,8-8,8l0,0c-4.4,0-8-3.6-8-8l0,0C16,3.6,19.6,0,24,0z"/>
	<g id="label">
		<text transform="matrix(1 0 0 1 19.36 11)" class="st2 st3">01</text>
	</g>
</g>
</svg>
