<?xml version="1.0" encoding="utf-8"?>
<!-- Generator: Adobe Illustrator 25.2.3, SVG Export Plug-In . SVG Version: 6.00 Build 0)  -->
<svg version="1.1" id="Layer_1" xmlns="http://www.w3.org/2000/svg" xmlns:xlink="http://www.w3.org/1999/xlink" x="0px" y="0px"
	 viewBox="0 0 48 48" style="enable-background:new 0 0 48 48;" xml:space="preserve">
<style type="text/css">
	.st0{fill:none;stroke:#5B029F;stroke-width:2;}
	.st1{fill:#FFFFFF;}
	.st2{fill:#5B029F;}
</style>
<path class="st0" d="M24,1L24,1c12.7,0,23,10.3,23,23l0,0c0,12.7-10.3,23-23,23l0,0C11.3,47,1,36.7,1,24l0,0C1,11.3,11.3,1,24,1z"/>
<g id="Path">
	<path class="st1" d="M21,32.4c-2.2,0-4.5-0.6-6.5-1.8c-0.4-0.2-0.6-0.7-0.5-1.1c0.1-0.4,0.5-0.7,1-0.7c0,0,0,0,0.1,0
		c0.1,0,0.3,0,0.4,0c1.1,0,2.3-0.2,3.3-0.7c-3-1.9-3.7-4.6-3.8-6.6c-0.1-2.5,0.8-4.5,0.8-4.6c0.1-0.3,0.5-0.6,0.8-0.6
		c0,0,0.1,0,0.1,0c0.3,0,0.6,0.2,0.8,0.4c1.3,1.9,3.4,3.1,5.7,3.3c0.1-1.3,0.7-2.6,1.6-3.4c0.9-0.7,2-1.1,3.1-1.1
		c1.1,0,2.2,0.4,3.1,1.1c0.7-0.3,1.3-0.6,1.7-0.9c0.2-0.1,0.4-0.2,0.6-0.2c0.2,0,0.4,0.1,0.6,0.2c0.4,0.2,0.5,0.7,0.4,1.1
		c-0.3,1.1-0.8,2.2-1.6,3.1c0,0.2,0,0.3,0,0.4c0,3.6-1.2,6.7-3.5,9C27,31.3,24.1,32.4,21,32.4L21,32.4z"/>
	<path class="st2" d="M33.2,16.5L33.2,16.5 M33.2,16.5c-0.3,1.2-0.9,2.2-1.7,3c0.1,0.2,0.1,0.5,0.1,0.7c0,7.1-5,11.2-10.6,11.2
		c-2,0-4.1-0.5-6.1-1.6c0.1,0,0.3,0,0.4,0c1.9,0,3.8-0.6,5.4-1.7c-7.5-3.3-4.2-10.8-4.2-10.8c1.6,2.4,4.3,3.8,7.2,3.8
		c0.1,0,0.2,0,0.3,0v-0.8c0-1.1,0.5-2.2,1.3-2.9c0.7-0.6,1.6-0.9,2.5-0.9c1,0,2.1,0.4,2.8,1.3C31.5,17.5,32.4,17.1,33.2,16.5
		 M33.2,14.5C33.2,14.5,33.2,14.5,33.2,14.5c-0.5,0-0.9,0.2-1.2,0.4c-0.3,0.2-0.6,0.4-1,0.6c-0.9-0.6-2.1-1-3.2-1
		c-1.3,0-2.7,0.5-3.7,1.3c0,0,0,0-0.1,0c-0.9,0.8-1.5,1.9-1.8,3c-1.6-0.4-3-1.3-4-2.8c-0.4-0.6-1-0.9-1.7-0.9c-0.1,0-0.1,0-0.2,0
		c-0.7,0.1-1.4,0.5-1.6,1.2c-0.1,0.2-1,2.4-0.9,5.1c0.1,2.4,1.1,4.5,2.7,6.1c-0.4,0.1-0.8,0.1-1.2,0.1c-0.1,0-0.2,0-0.3,0
		c0,0-0.1,0-0.1,0c-0.9,0-1.7,0.6-1.9,1.4c-0.3,0.9,0.1,1.8,0.9,2.3c2.2,1.2,4.6,1.9,7,1.9c6.3,0,12.6-4.5,12.6-13.2c0,0,0,0,0-0.1
		c0.7-0.9,1.2-1.9,1.5-3c0.1-0.2,0.1-0.4,0.1-0.6C35.2,15.4,34.3,14.5,33.2,14.5L33.2,14.5C33.2,14.5,33.2,14.5,33.2,14.5L33.2,14.5
		z M33.2,18.5L33.2,18.5L33.2,18.5L33.2,18.5z"/>
</g>
</svg>
